<?xml version="1.0" encoding="iso-8859-1"?>
<!-- Generator: Adobe Illustrator 23.0.3, SVG Export Plug-In . SVG Version: 6.00 Build 0)  -->
<svg version="1.1" id="Capa_1" xmlns="http://www.w3.org/2000/svg" xmlns:xlink="http://www.w3.org/1999/xlink" x="0px" y="0px"
	 viewBox="55 213.885 379.534 178.82" style="enable-background:new 55 213.885 379.534 178.82;" xml:space="preserve">
<path d="M55,341.822c0,5.523,4.478,10,10,10h70.99c4.479,0,8.412-2.979,9.626-7.29l21.439-76.146l20.924,116.092
	c0.776,4.305,4.261,7.606,8.602,8.149c0.417,0.052,0.832,0.078,1.244,0.078c3.88,0,7.461-2.26,9.099-5.859l23.052-50.667
	l4.577,9.855c1.639,3.53,5.178,5.788,9.069,5.788h36.64c4.479,0,8.412-2.979,9.626-7.29l21.438-76.146l20.925,116.092
	c0.776,4.305,4.261,7.606,8.602,8.149c4.342,0.546,8.531-1.799,10.343-5.782l23.051-50.667l4.577,9.855
	c1.639,3.53,5.178,5.788,9.069,5.788h36.641c5.522,0,10-4.477,10-10c0-5.523-4.478-10-10-10h-30.259l-11.053-23.797
	c-1.64-3.531-5.179-5.788-9.069-5.788c-0.013,0-0.026,0-0.039,0c-3.906,0.015-7.445,2.304-9.063,5.859l-18.797,41.316l-22.944-127.3
	c-0.826-4.584-4.709-7.991-9.361-8.214c-4.686-0.219-8.844,2.795-10.106,7.278l-31.152,110.646h-22.685l-11.053-23.797
	c-1.64-3.531-5.179-5.788-9.069-5.788c-0.013,0-0.026,0-0.039,0c-3.906,0.015-7.445,2.303-9.063,5.859l-18.798,41.316l-22.943-127.3
	c-0.826-4.584-4.709-7.991-9.361-8.214c-4.659-0.227-8.844,2.794-10.106,7.278l-31.153,110.646H65
	C59.478,331.822,55,336.299,55,341.822z"/>
</svg>
